<svg xmlns="http://www.w3.org/2000/svg" width="721" height="721" viewBox="0 0 721 721" version="1.1">
	<path d="M 174.656 181.159 C 174.295 189.496, 174 199.171, 174 202.659 C 174 206.220, 173.562 209, 173 209 C 172.450 209, 172 209.900, 172 211 C 172 212.453, 172.667 213, 174.438 213 C 176.539 213, 177.660 211.450, 182.568 201.750 C 187.665 191.676, 194.328 180.670, 198.332 175.712 C 200.667 172.821, 205.621 172, 220.743 172 L 235 172 235 256.618 L 235 341.235 231.250 344.936 C 228.188 347.957, 226.079 348.966, 219.750 350.435 C 214.686 351.610, 212 352.713, 212 353.617 C 212 354.774, 219.356 355, 257 355 C 295.128 355, 302 354.784, 302 353.585 C 302 352.646, 299.431 351.565, 294.361 350.370 C 290.159 349.379, 285.604 347.690, 284.239 346.616 C 278.874 342.396, 279 344.602, 279 254.946 L 279 171.828 295.297 172.164 C 308.765 172.442, 312.059 172.805, 314.269 174.255 C 318.544 177.059, 324.327 185.686, 331.418 199.837 C 335.457 207.897, 338.593 213, 339.507 213 C 340.777 213, 340.999 210.271, 340.991 194.750 C 340.987 184.713, 340.699 174.137, 340.352 171.250 L 339.721 166 257.517 166 L 175.312 166 174.656 181.159 M 345.603 183.250 C 345.233 192.738, 344.662 203.088, 344.336 206.250 C 343.785 211.583, 343.891 212, 345.803 212 C 346.960 212, 348.133 211.155, 348.476 210.076 C 348.812 209.017, 350.121 206.627, 351.386 204.763 C 352.651 202.900, 355.393 198.253, 357.480 194.438 C 364.949 180.784, 370.301 175.208, 378.080 172.977 C 381.271 172.062, 440 171.522, 440 172.408 C 440 173.010, 433.011 186.093, 431.136 189 C 430.250 190.375, 426.346 197.350, 422.462 204.500 C 415.159 217.943, 407.642 231.578, 398.482 248 C 382.679 276.330, 368.535 301.859, 367.179 304.500 C 366.332 306.150, 362.735 312.675, 359.186 319 C 347.080 340.573, 341 352.129, 341 353.565 C 341 354.799, 351.310 355, 414.420 355 L 487.841 355 488.397 348.750 C 488.703 345.313, 489.201 337.100, 489.505 330.500 C 489.808 323.900, 490.311 316.363, 490.622 313.750 C 491.126 309.518, 490.976 309, 489.243 309 C 487.788 309, 485.969 311.578, 482.011 319.250 C 474.583 333.648, 468.388 342.715, 463.989 345.626 C 461.707 347.136, 457.708 348.484, 453.859 349.040 C 447.169 350.008, 388 350.388, 388 349.463 C 388 348.768, 398.026 329.864, 399.205 328.335 C 399.700 327.694, 403.619 320.719, 407.915 312.835 C 418.764 292.926, 429.926 272.651, 441.683 251.500 C 447.185 241.600, 453.389 230.350, 455.468 226.500 C 457.548 222.650, 459.578 219.050, 459.979 218.500 C 460.381 217.950, 462.416 214.350, 464.501 210.500 C 466.586 206.650, 471.313 198.100, 475.006 191.500 C 483.853 175.686, 487 169.397, 487 167.533 C 487 166.170, 479.193 166, 416.639 166 L 346.277 166 345.603 183.250 M 517 172.878 C 517 173.360, 517.675 174.315, 518.500 175 C 520.841 176.943, 520.703 213.565, 518.345 216.171 C 516.753 217.930, 517.030 217.999, 525.595 217.970 C 532.133 217.947, 534.035 217.668, 532.750 216.920 C 531.174 216.002, 531 213.877, 531 195.557 C 531 178.397, 531.235 175.124, 532.500 174.638 C 533.325 174.322, 534 173.599, 534 173.031 C 534 172.404, 530.672 172, 525.500 172 C 520.825 172, 517 172.395, 517 172.878 M 517.713 298.867 C 519.289 300.443, 521.881 305.056, 523.471 309.117 C 529.737 325.115, 531.929 329.151, 534.169 328.814 C 536.317 328.491, 536.542 327.970, 543.702 306.750 C 545.140 302.488, 546.610 299, 546.967 299 C 547.325 299, 548.491 298.339, 549.559 297.532 C 551.341 296.184, 551.051 296.064, 546 296.064 C 541.215 296.064, 540.728 296.236, 542.250 297.392 C 544.604 299.179, 544.489 300.338, 540.993 310.020 C 537.891 318.610, 537.004 320.360, 536.994 317.917 C 536.990 317.137, 536.282 315.150, 535.419 313.500 C 534.556 311.850, 532.989 308.055, 531.936 305.066 C 530.158 300.017, 530.139 299.504, 531.666 297.816 C 533.243 296.074, 532.936 296, 524.078 296 L 514.846 296 517.713 298.867 M 212.180 367.176 C 212.441 368.950, 213.543 369.558, 218.157 370.476 C 221.269 371.095, 224.561 372.221, 225.473 372.978 C 230.091 376.810, 230 375.055, 230 460.582 L 230 541.264 226.642 544.431 C 224.795 546.173, 221.420 548.157, 219.142 548.839 C 216.117 549.746, 215 550.609, 215 552.040 C 215 553.968, 216.144 554, 284.871 554 L 354.742 554 355.349 544.250 C 355.682 538.888, 356.248 527.638, 356.605 519.250 C 357.200 505.321, 357.109 504, 355.560 504 C 354.389 504, 352.470 507.018, 349.361 513.750 C 339.992 534.040, 338.752 536.263, 334.186 540.956 C 327.939 547.377, 324.602 548, 296.451 548 L 274 548 274 463.950 C 274 371.363, 273.698 375.795, 280.218 372.701 C 282.036 371.838, 285.994 370.858, 289.012 370.523 C 302.983 368.972, 303 368.967, 303 366.939 C 303 365.049, 301.853 365, 257.430 365 L 211.861 365 212.180 367.176 M 342 387.360 C 342 396.909, 341.714 406.809, 341.364 409.360 C 340.800 413.476, 340.943 414, 342.629 414 C 344.039 414, 346.461 410.470, 352.015 400.318 C 365.128 376.349, 365.573 376, 382.968 376 L 394 376 393.994 455.250 C 393.991 506.221, 393.624 535.815, 392.965 538.186 C 391.490 543.496, 387.393 546.438, 378.586 548.512 C 372.514 549.942, 371 550.668, 371 552.149 C 371 553.922, 372.850 554, 415 554 C 457.150 554, 459 553.922, 459 552.149 C 459 550.667, 457.478 549.940, 451.344 548.496 C 442.267 546.358, 438.318 543.337, 436.971 537.500 C 436.450 535.241, 436.037 499.221, 436.024 454.750 L 436 376 447.634 376 C 467.806 376, 470.158 377.683, 480.081 399.218 C 485.489 410.953, 487.072 413.560, 488.961 413.837 C 490.922 414.124, 491.177 413.829, 490.696 411.837 C 490.386 410.551, 489.575 400.613, 488.894 389.750 L 487.655 370 414.828 370 L 342 370 342 387.360 M 525.138 408.104 C 519.316 411.061, 517.008 415.033, 517.004 422.102 C 516.998 431.102, 522.712 437.762, 531.267 438.727 C 536.941 439.366, 542.381 437.603, 544.998 434.275 C 547.717 430.819, 547.005 430.475, 542.559 433.098 C 539.278 435.034, 538.427 435.145, 534.929 434.097 C 530.344 432.723, 528.036 429.689, 527.278 424.038 L 526.737 420 537.368 420 C 547.988 420, 548 419.997, 548 417.547 C 548 411.018, 543.121 406.760, 535.045 406.243 C 530.797 405.972, 528.480 406.407, 525.138 408.104 M 530.048 408.760 C 528.692 409.858, 527.660 412.115, 527.305 414.760 L 526.737 419 532.868 419 L 539 419 539 414.557 C 539 411.099, 538.507 409.768, 536.777 408.557 C 533.927 406.560, 532.720 406.597, 530.048 408.760 M 521.541 517.659 C 516.522 519.467, 516.433 519.576, 518.381 521.524 C 520.768 523.911, 520.739 544.526, 518.345 547.171 C 516.753 548.930, 517.029 548.997, 525.595 548.932 C 532.746 548.878, 534.057 548.651, 532.250 547.780 C 530.115 546.750, 530 546.122, 530 535.470 C 530 522.392, 531.016 520.294, 535.604 523.903 C 540.512 527.763, 544.396 525.830, 543.818 519.815 C 543.520 516.713, 543.238 516.481, 539.417 516.201 C 535.930 515.945, 534.872 516.374, 532.167 519.140 L 529 522.380 529 519.190 C 529 515.557, 527.966 515.345, 521.541 517.659" stroke="none" fill="#564e3f" fill-rule="evenodd"/>
</svg>